<?xml version="1.0" ?><svg id="Layer_1" style="enable-background:new 0 0 128 128;" version="1.1" viewBox="0 0 128 128" xml:space="preserve" xmlns="http://www.w3.org/2000/svg" xmlns:xlink="http://www.w3.org/1999/xlink"><style type="text/css">
	.st0{fill:#1C4FBE;}
	.st1{fill:#EE693F;}
	.st2{fill:#FFB8CB;}
	.st3{fill:#F94003;}
	.st4{fill:#DEA740;}
	.st5{fill:#1CB6BE;}
	.st6{fill:#BCCE3E;}
	.st7{fill:#EDEFF2;}
	.st8{fill:#684E3C;}
	.st9{fill:#100F0D;}
	.st10{fill:#5B4332;}
	.st11{fill:#5C7242;}
	.st12{fill:#E1B0AF;}
	.st13{fill:#EC5527;}
	.st14{fill:#057590;}
	.st15{fill:#771C39;}
	.st16{fill:#F8A70C;}
	.st17{fill:#F06522;}
	.st18{fill:#FFFFFF;}
	.st19{fill:#CC7C2C;}
	.st20{fill:#5D6124;}
	.st21{fill:#E6AA30;}
	.st22{fill:#2AB06A;}
	.st23{fill:#725948;}
	.st24{fill:#1A1613;}
	.st25{fill:none;}
	.st26{fill:#EE4D4C;}
</style><path class="st2" d="M57.4,114.6c4-4.6,6.9-4.1,10.5,0.7c9.7,12.8,22.8,14.1,37,8c13.1-5.7,21.9-22.3,19.2-35.8  c-2.2-11.1-9.9-18-19.9-22.5c0.2-0.7,0.4-1.4,0.5-2.2l0,0c12.2-5.2,20.9-18.3,19.1-30.2c-1.8-11.8-10-19.3-20.3-23.8  c-8.7-3.8-17.9-2.2-25.4,4c-4.9,4.1-8,5.3-13.3-0.2C50.3-2.4,31.4-2.9,18.3,10.5C2.4,26.7,1.6,48.3,16.7,62.9  c3.7,3.6,2.4,5.6-0.3,8.8c-7.9,9.5-13,19.7-7.3,32.5C15.6,118.6,42.6,131.5,57.4,114.6z"/></svg>